<?xml version="1.0" encoding="UTF-8" standalone="no"?>
<!DOCTYPE svg PUBLIC "-//W3C//DTD SVG 1.1//EN"
 "http://www.w3.org/Graphics/SVG/1.1/DTD/svg11.dtd">
<!-- Generated by graphviz version 14.1.2 (20260124.0452)
 -->
<!-- Title: graph Pages: 1 -->
<svg width="286pt" height="671pt"
 viewBox="0.00 0.00 286.00 671.00" xmlns="http://www.w3.org/2000/svg" xmlns:xlink="http://www.w3.org/1999/xlink">
<g id="graph0" class="graph" transform="scale(1 1) rotate(0) translate(4 667)">
<title>graph</title>
<polygon fill="white" stroke="none" points="-4,4 -4,-667 282,-667 282,4 -4,4"/>
<!-- x -->
<g id="node1" class="node">
<title>x</title>
<path fill="AliceBlue" stroke="black" d="M12,-466.5C12,-466.5 121,-466.5 121,-466.5 127,-466.5 133,-472.5 133,-478.5 133,-478.5 133,-650.5 133,-650.5 133,-656.5 127,-662.5 121,-662.5 121,-662.5 12,-662.5 12,-662.5 6,-662.5 0,-656.5 0,-650.5 0,-650.5 0,-478.5 0,-478.5 0,-472.5 6,-466.5 12,-466.5"/>
<text xml:space="preserve" text-anchor="middle" x="66.5" y="-645.2" font-family="Times,serif" font-size="14.00" fill="#000000">name=%x</text>
<polyline fill="none" stroke="black" points="0,-638 133,-638"/>
<text xml:space="preserve" text-anchor="middle" x="66.5" y="-620.7" font-family="Times,serif" font-size="14.00" fill="#000000">op_code=placeholder</text>
<polyline fill="none" stroke="black" points="0,-613.5 133,-613.5"/>
<text xml:space="preserve" text-anchor="middle" x="66.5" y="-596.2" font-family="Times,serif" font-size="14.00" fill="#000000">target=x</text>
<polyline fill="none" stroke="black" points="0,-589 133,-589"/>
<text xml:space="preserve" text-anchor="middle" x="66.5" y="-571.7" font-family="Times,serif" font-size="14.00" fill="#000000">num_users=1</text>
<polyline fill="none" stroke="black" points="0,-564.5 133,-564.5"/>
<text xml:space="preserve" text-anchor="middle" x="66.5" y="-547.2" font-family="Times,serif" font-size="14.00" fill="#000000">dtype=torch.bfloat16</text>
<polyline fill="none" stroke="black" points="0,-540 133,-540"/>
<text xml:space="preserve" text-anchor="middle" x="66.5" y="-522.7" font-family="Times,serif" font-size="14.00" fill="#000000">shape=(32, 32)</text>
<polyline fill="none" stroke="black" points="0,-515.5 133,-515.5"/>
<text xml:space="preserve" text-anchor="middle" x="66.5" y="-498.2" font-family="Times,serif" font-size="14.00" fill="#000000">requires_grad=False</text>
<polyline fill="none" stroke="black" points="0,-491 133,-491"/>
<text xml:space="preserve" text-anchor="middle" x="66.5" y="-473.7" font-family="Times,serif" font-size="14.00" fill="#000000">stride=(32, 1)</text>
</g>
<!-- add -->
<g id="node3" class="node">
<title>add</title>
<path fill="#ffe7ba" stroke="black" d="M81.88,-233.5C81.88,-233.5 199.12,-233.5 199.12,-233.5 205.12,-233.5 211.12,-239.5 211.12,-245.5 211.12,-245.5 211.12,-417.5 211.12,-417.5 211.12,-423.5 205.12,-429.5 199.12,-429.5 199.12,-429.5 81.88,-429.5 81.88,-429.5 75.88,-429.5 69.88,-423.5 69.88,-417.5 69.88,-417.5 69.88,-245.5 69.88,-245.5 69.88,-239.5 75.88,-233.5 81.88,-233.5"/>
<text xml:space="preserve" text-anchor="middle" x="140.5" y="-412.2" font-family="Times,serif" font-size="14.00" fill="#000000">name=%add</text>
<polyline fill="none" stroke="black" points="69.88,-405 211.12,-405"/>
<text xml:space="preserve" text-anchor="middle" x="140.5" y="-387.7" font-family="Times,serif" font-size="14.00" fill="#000000">op_code=call_function</text>
<polyline fill="none" stroke="black" points="69.88,-380.5 211.12,-380.5"/>
<text xml:space="preserve" text-anchor="middle" x="140.5" y="-363.2" font-family="Times,serif" font-size="14.00" fill="#000000">target=_operator.add</text>
<polyline fill="none" stroke="black" points="69.88,-356 211.12,-356"/>
<text xml:space="preserve" text-anchor="middle" x="140.5" y="-338.7" font-family="Times,serif" font-size="14.00" fill="#000000">num_users=1</text>
<polyline fill="none" stroke="black" points="69.88,-331.5 211.12,-331.5"/>
<text xml:space="preserve" text-anchor="middle" x="140.5" y="-314.2" font-family="Times,serif" font-size="14.00" fill="#000000">dtype=torch.float32</text>
<polyline fill="none" stroke="black" points="69.88,-307 211.12,-307"/>
<text xml:space="preserve" text-anchor="middle" x="140.5" y="-289.7" font-family="Times,serif" font-size="14.00" fill="#000000">shape=(32, 32)</text>
<polyline fill="none" stroke="black" points="69.88,-282.5 211.12,-282.5"/>
<text xml:space="preserve" text-anchor="middle" x="140.5" y="-265.2" font-family="Times,serif" font-size="14.00" fill="#000000">requires_grad=False</text>
<polyline fill="none" stroke="black" points="69.88,-258 211.12,-258"/>
<text xml:space="preserve" text-anchor="middle" x="140.5" y="-240.7" font-family="Times,serif" font-size="14.00" fill="#000000">stride=(32, 1)</text>
</g>
<!-- x&#45;&gt;add -->
<g id="edge1" class="edge">
<title>x&#45;&gt;add</title>
<path fill="none" stroke="black" d="M97.67,-466.2C100.39,-457.71 103.15,-449.08 105.9,-440.5"/>
<polygon fill="black" stroke="black" points="109.19,-441.72 108.91,-431.12 102.52,-439.58 109.19,-441.72"/>
</g>
<!-- bias -->
<g id="node2" class="node">
<title>bias</title>
<path fill="LightGrey" stroke="black" d="M163,-466.5C163,-466.5 266,-466.5 266,-466.5 272,-466.5 278,-472.5 278,-478.5 278,-478.5 278,-650.5 278,-650.5 278,-656.5 272,-662.5 266,-662.5 266,-662.5 163,-662.5 163,-662.5 157,-662.5 151,-656.5 151,-650.5 151,-650.5 151,-478.5 151,-478.5 151,-472.5 157,-466.5 163,-466.5"/>
<text xml:space="preserve" text-anchor="middle" x="214.5" y="-645.2" font-family="Times,serif" font-size="14.00" fill="#000000">name=%bias</text>
<polyline fill="none" stroke="black" points="151,-638 278,-638"/>
<text xml:space="preserve" text-anchor="middle" x="214.5" y="-620.7" font-family="Times,serif" font-size="14.00" fill="#000000">op_code=get_attr</text>
<polyline fill="none" stroke="black" points="151,-613.5 278,-613.5"/>
<text xml:space="preserve" text-anchor="middle" x="214.5" y="-596.2" font-family="Times,serif" font-size="14.00" fill="#000000">target=bias</text>
<polyline fill="none" stroke="black" points="151,-589 278,-589"/>
<text xml:space="preserve" text-anchor="middle" x="214.5" y="-571.7" font-family="Times,serif" font-size="14.00" fill="#000000">num_users=1</text>
<polyline fill="none" stroke="black" points="151,-564.5 278,-564.5"/>
<text xml:space="preserve" text-anchor="middle" x="214.5" y="-547.2" font-family="Times,serif" font-size="14.00" fill="#000000">dtype=torch.float32</text>
<polyline fill="none" stroke="black" points="151,-540 278,-540"/>
<text xml:space="preserve" text-anchor="middle" x="214.5" y="-522.7" font-family="Times,serif" font-size="14.00" fill="#000000">shape=(32, 32)</text>
<polyline fill="none" stroke="black" points="151,-515.5 278,-515.5"/>
<text xml:space="preserve" text-anchor="middle" x="214.5" y="-498.2" font-family="Times,serif" font-size="14.00" fill="#000000">requires_grad=False</text>
<polyline fill="none" stroke="black" points="151,-491 278,-491"/>
<text xml:space="preserve" text-anchor="middle" x="214.5" y="-473.7" font-family="Times,serif" font-size="14.00" fill="#000000">stride=(32, 1)</text>
</g>
<!-- bias&#45;&gt;add -->
<g id="edge2" class="edge">
<title>bias&#45;&gt;add</title>
<path fill="none" stroke="black" d="M183.33,-466.2C180.61,-457.71 177.85,-449.08 175.1,-440.5"/>
<polygon fill="black" stroke="black" points="178.48,-439.58 172.09,-431.12 171.81,-441.72 178.48,-439.58"/>
</g>
<!-- output -->
<g id="node4" class="node">
<title>output</title>
<path fill="PowderBlue" stroke="black" d="M89,-0.5C89,-0.5 192,-0.5 192,-0.5 198,-0.5 204,-6.5 204,-12.5 204,-12.5 204,-184.5 204,-184.5 204,-190.5 198,-196.5 192,-196.5 192,-196.5 89,-196.5 89,-196.5 83,-196.5 77,-190.5 77,-184.5 77,-184.5 77,-12.5 77,-12.5 77,-6.5 83,-0.5 89,-0.5"/>
<text xml:space="preserve" text-anchor="middle" x="140.5" y="-179.2" font-family="Times,serif" font-size="14.00" fill="#000000">name=%output</text>
<polyline fill="none" stroke="black" points="77,-172 204,-172"/>
<text xml:space="preserve" text-anchor="middle" x="140.5" y="-154.7" font-family="Times,serif" font-size="14.00" fill="#000000">op_code=output</text>
<polyline fill="none" stroke="black" points="77,-147.5 204,-147.5"/>
<text xml:space="preserve" text-anchor="middle" x="140.5" y="-130.2" font-family="Times,serif" font-size="14.00" fill="#000000">target=output</text>
<polyline fill="none" stroke="black" points="77,-123 204,-123"/>
<text xml:space="preserve" text-anchor="middle" x="140.5" y="-105.7" font-family="Times,serif" font-size="14.00" fill="#000000">num_users=0</text>
<polyline fill="none" stroke="black" points="77,-98.5 204,-98.5"/>
<text xml:space="preserve" text-anchor="middle" x="140.5" y="-81.2" font-family="Times,serif" font-size="14.00" fill="#000000">dtype=torch.float32</text>
<polyline fill="none" stroke="black" points="77,-74 204,-74"/>
<text xml:space="preserve" text-anchor="middle" x="140.5" y="-56.7" font-family="Times,serif" font-size="14.00" fill="#000000">shape=(32, 32)</text>
<polyline fill="none" stroke="black" points="77,-49.5 204,-49.5"/>
<text xml:space="preserve" text-anchor="middle" x="140.5" y="-32.2" font-family="Times,serif" font-size="14.00" fill="#000000">requires_grad=False</text>
<polyline fill="none" stroke="black" points="77,-25 204,-25"/>
<text xml:space="preserve" text-anchor="middle" x="140.5" y="-7.7" font-family="Times,serif" font-size="14.00" fill="#000000">stride=(32, 1)</text>
</g>
<!-- add&#45;&gt;output -->
<g id="edge3" class="edge">
<title>add&#45;&gt;output</title>
<path fill="none" stroke="black" d="M140.5,-233.2C140.5,-224.9 140.5,-216.46 140.5,-208.07"/>
<polygon fill="black" stroke="black" points="144,-208.2 140.5,-198.2 137,-208.2 144,-208.2"/>
</g>
</g>
</svg>
